{
	"asset":{
		"generator":"Khronos glTF Blender I/O v3.6.27",
		"version":"2.0"
	},
	"scene":0,
	"scenes":[
		{
			"name":"Scene",
			"nodes":[
				0
			]
		}
	],
	"nodes":[
		{
			"mesh":0,
			"name":"path4913.001",
			"scale":[
				11.840864181518555,
				11.840864181518555,
				11.840864181518555
			]
		}
	],
	"meshes":[
		{
			"name":"Mesh.030",
			"primitives":[
				{
					"attributes":{
						"POSITION":0,
						"NORMAL":1
					},
					"indices":2
				}
			]
		}
	],
	"accessors":[
		{
			"bufferView":0,
			"componentType":5126,
			"count":484,
			"max":[
				0.12730517983436584,
				0.01439950242638588,
				0.03459544852375984
			],
			"min":[
				0.05211701989173889,
				0.006846664473414421,
				-0.0323813296854496
			],
			"type":"VEC3"
		},
		{
			"bufferView":1,
			"componentType":5126,
			"count":484,
			"type":"VEC3"
		},
		{
			"bufferView":2,
			"componentType":5123,
			"count":1068,
			"type":"SCALAR"
		}
	],
	"bufferViews":[
		{
			"buffer":0,
			"byteLength":5808,
			"byteOffset":0,
			"target":34962
		},
		{
			"buffer":0,
			"byteLength":5808,
			"byteOffset":5808,
			"target":34962
		},
		{
			"buffer":0,
			"byteLength":2136,
			"byteOffset":11616,
			"target":34963
		}
	],
	"buffers":[
		{
			"byteLength":13752,
			"uri":"data:application/octet-stream;base64,"
		}
	]
}
