{
	"asset":{
		"generator":"Khronos glTF Blender I/O v3.6.27",
		"version":"2.0"
	},
	"scene":0,
	"scenes":[
		{
			"name":"Scene",
			"nodes":[
				0
			]
		}
	],
	"nodes":[
		{
			"mesh":0,
			"name":"path3768.001",
			"scale":[
				11.840864181518555,
				11.840864181518555,
				11.840864181518555
			]
		}
	],
	"meshes":[
		{
			"name":"Mesh.023",
			"primitives":[
				{
					"attributes":{
						"POSITION":0,
						"NORMAL":1
					},
					"indices":2
				}
			]
		}
	],
	"accessors":[
		{
			"bufferView":0,
			"componentType":5126,
			"count":136,
			"max":[
				-0.057991184294223785,
				0.014627689495682716,
				0.037399690598249435
			],
			"min":[
				-0.08792823553085327,
				0.006846664473414421,
				0.00894138589501381
			],
			"type":"VEC3"
		},
		{
			"bufferView":1,
			"componentType":5126,
			"count":136,
			"type":"VEC3"
		},
		{
			"bufferView":2,
			"componentType":5123,
			"count":300,
			"type":"SCALAR"
		}
	],
	"bufferViews":[
		{
			"buffer":0,
			"byteLength":1632,
			"byteOffset":0,
			"target":34962
		},
		{
			"buffer":0,
			"byteLength":1632,
			"byteOffset":1632,
			"target":34962
		},
		{
			"buffer":0,
			"byteLength":600,
			"byteOffset":3264,
			"target":34963
		}
	],
	"buffers":[
		{
			"byteLength":3864,
			"uri":"data:application/octet-stream;base64,"
		}
	]
}
