{
	"asset":{
		"generator":"Khronos glTF Blender I/O v3.6.27",
		"version":"2.0"
	},
	"scene":0,
	"scenes":[
		{
			"name":"Scene",
			"nodes":[
				0
			]
		}
	],
	"nodes":[
		{
			"mesh":0,
			"name":"path3051.001",
			"scale":[
				11.840864181518555,
				11.840864181518555,
				11.840864181518555
			],
			"translation":[
				0,
				-0.14706608653068542,
				0
			]
		}
	],
	"meshes":[
		{
			"name":"Mesh.018",
			"primitives":[
				{
					"attributes":{
						"POSITION":0,
						"NORMAL":1
					},
					"indices":2
				}
			]
		}
	],
	"accessors":[
		{
			"bufferView":0,
			"componentType":5126,
			"count":102,
			"max":[
				-0.022282250225543976,
				0.02672469988465309,
				-0.002257648855447769
			],
			"min":[
				-0.0566830188035965,
				0.019994109869003296,
				-0.03386053070425987
			],
			"type":"VEC3"
		},
		{
			"bufferView":1,
			"componentType":5126,
			"count":102,
			"type":"VEC3"
		},
		{
			"bufferView":2,
			"componentType":5123,
			"count":192,
			"type":"SCALAR"
		}
	],
	"bufferViews":[
		{
			"buffer":0,
			"byteLength":1224,
			"byteOffset":0,
			"target":34962
		},
		{
			"buffer":0,
			"byteLength":1224,
			"byteOffset":1224,
			"target":34962
		},
		{
			"buffer":0,
			"byteLength":384,
			"byteOffset":2448,
			"target":34963
		}
	],
	"buffers":[
		{
			"byteLength":2832,
			"uri":"data:application/octet-stream;base64,"
		}
	]
}
