{
	"asset":{
		"generator":"Khronos glTF Blender I/O v3.6.27",
		"version":"2.0"
	},
	"scene":0,
	"scenes":[
		{
			"name":"Scene",
			"nodes":[
				0
			]
		}
	],
	"nodes":[
		{
			"mesh":0,
			"name":"path4258.001",
			"scale":[
				11.840864181518555,
				11.840864181518555,
				11.840864181518555
			]
		}
	],
	"meshes":[
		{
			"name":"Mesh.034",
			"primitives":[
				{
					"attributes":{
						"POSITION":0,
						"NORMAL":1
					},
					"indices":2
				}
			]
		}
	],
	"accessors":[
		{
			"bufferView":0,
			"componentType":5126,
			"count":146,
			"max":[
				0.10876911878585815,
				0.014644404873251915,
				0.03841231390833855
			],
			"min":[
				0.08702780306339264,
				0.006846664473414421,
				0.0109996497631073
			],
			"type":"VEC3"
		},
		{
			"bufferView":1,
			"componentType":5126,
			"count":146,
			"type":"VEC3"
		},
		{
			"bufferView":2,
			"componentType":5123,
			"count":324,
			"type":"SCALAR"
		}
	],
	"bufferViews":[
		{
			"buffer":0,
			"byteLength":1752,
			"byteOffset":0,
			"target":34962
		},
		{
			"buffer":0,
			"byteLength":1752,
			"byteOffset":1752,
			"target":34962
		},
		{
			"buffer":0,
			"byteLength":648,
			"byteOffset":3504,
			"target":34963
		}
	],
	"buffers":[
		{
			"byteLength":4152,
			"uri":"data:application/octet-stream;base64,"
		}
	]
}
