{
	"asset":{
		"generator":"Khronos glTF Blender I/O v3.6.27",
		"version":"2.0"
	},
	"scene":0,
	"scenes":[
		{
			"name":"Scene",
			"nodes":[
				0
			]
		}
	],
	"nodes":[
		{
			"mesh":0,
			"name":"path2880.001",
			"scale":[
				11.840864181518555,
				11.840864181518555,
				11.840864181518555
			]
		}
	],
	"meshes":[
		{
			"name":"Mesh.027",
			"primitives":[
				{
					"attributes":{
						"POSITION":0,
						"NORMAL":1
					},
					"indices":2
				}
			]
		}
	],
	"accessors":[
		{
			"bufferView":0,
			"componentType":5126,
			"count":238,
			"max":[
				0.023229897022247314,
				0.014836902730166912,
				0.026715319603681564
			],
			"min":[
				-0.024746619164943695,
				0.006846664473414421,
				-0.035539206117391586
			],
			"type":"VEC3"
		},
		{
			"bufferView":1,
			"componentType":5126,
			"count":238,
			"type":"VEC3"
		},
		{
			"bufferView":2,
			"componentType":5123,
			"count":504,
			"type":"SCALAR"
		}
	],
	"bufferViews":[
		{
			"buffer":0,
			"byteLength":2856,
			"byteOffset":0,
			"target":34962
		},
		{
			"buffer":0,
			"byteLength":2856,
			"byteOffset":2856,
			"target":34962
		},
		{
			"buffer":0,
			"byteLength":1008,
			"byteOffset":5712,
			"target":34963
		}
	],
	"buffers":[
		{
			"byteLength":6720,
			"uri":"data:application/octet-stream;base64,"
		}
	]
}
