{
	"asset":{
		"generator":"Khronos glTF Blender I/O v3.6.27",
		"version":"2.0"
	},
	"scene":0,
	"scenes":[
		{
			"name":"Scene",
			"nodes":[
				0,
				1,
				2,
				3,
				4,
				5,
				6,
				7,
				8,
				9,
				10,
				11,
				12,
				13,
				14,
				15,
				16,
				17
			]
		}
	],
	"nodes":[
		{
			"mesh":0,
			"name":"path4163",
			"scale":[
				11.840864181518555,
				11.840864181518555,
				11.840864181518555
			]
		},
		{
			"mesh":1,
			"name":"path4258",
			"scale":[
				11.840864181518555,
				11.840864181518555,
				11.840864181518555
			]
		},
		{
			"mesh":2,
			"name":"path2880",
			"scale":[
				11.840864181518555,
				11.840864181518555,
				11.840864181518555
			]
		},
		{
			"mesh":3,
			"name":"path6616",
			"scale":[
				11.840864181518555,
				11.840864181518555,
				11.840864181518555
			]
		},
		{
			"mesh":4,
			"name":"path7278",
			"scale":[
				11.840864181518555,
				11.840864181518555,
				11.840864181518555
			]
		},
		{
			"mesh":5,
			"name":"path7679",
			"scale":[
				11.840864181518555,
				11.840864181518555,
				11.840864181518555
			]
		},
		{
			"mesh":6,
			"name":"path7675",
			"scale":[
				11.840864181518555,
				11.840864181518555,
				11.840864181518555
			]
		},
		{
			"mesh":7,
			"name":"path7677",
			"scale":[
				11.840864181518555,
				11.840864181518555,
				11.840864181518555
			]
		},
		{
			"mesh":8,
			"name":"path4166",
			"scale":[
				11.840864181518555,
				11.840864181518555,
				11.840864181518555
			]
		},
		{
			"mesh":9,
			"name":"path4576",
			"scale":[
				11.840864181518555,
				11.840864181518555,
				11.840864181518555
			]
		},
		{
			"mesh":10,
			"name":"path4913",
			"scale":[
				11.840864181518555,
				11.840864181518555,
				11.840864181518555
			]
		},
		{
			"mesh":11,
			"name":"path3599",
			"scale":[
				11.840864181518555,
				11.840864181518555,
				11.840864181518555
			]
		},
		{
			"mesh":12,
			"name":"path3768",
			"scale":[
				11.840864181518555,
				11.840864181518555,
				11.840864181518555
			]
		},
		{
			"mesh":13,
			"name":"path3860",
			"scale":[
				11.840864181518555,
				11.840864181518555,
				11.840864181518555
			]
		},
		{
			"mesh":14,
			"name":"path3051",
			"scale":[
				11.840864181518555,
				11.840864181518555,
				11.840864181518555
			]
		},
		{
			"mesh":15,
			"name":"path3144",
			"scale":[
				11.840864181518555,
				11.840864181518555,
				11.840864181518555
			]
		},
		{
			"mesh":16,
			"name":"path3147",
			"scale":[
				11.840864181518555,
				11.840864181518555,
				11.840864181518555
			]
		},
		{
			"mesh":17,
			"name":"path3354",
			"scale":[
				11.840864181518555,
				11.840864181518555,
				11.840864181518555
			]
		}
	],
	"meshes":[
		{
			"name":"Mesh",
			"primitives":[
				{
					"attributes":{
						"POSITION":0,
						"NORMAL":1
					},
					"indices":2
				}
			]
		},
		{
			"name":"Mesh.001",
			"primitives":[
				{
					"attributes":{
						"POSITION":3,
						"NORMAL":4
					},
					"indices":5
				}
			]
		},
		{
			"name":"Mesh.002",
			"primitives":[
				{
					"attributes":{
						"POSITION":6,
						"NORMAL":7
					},
					"indices":8
				}
			]
		},
		{
			"name":"Mesh.003",
			"primitives":[
				{
					"attributes":{
						"POSITION":9,
						"NORMAL":10
					},
					"indices":11
				}
			]
		},
		{
			"name":"Mesh.004",
			"primitives":[
				{
					"attributes":{
						"POSITION":12,
						"NORMAL":13
					},
					"indices":14
				}
			]
		},
		{
			"name":"Mesh.005",
			"primitives":[
				{
					"attributes":{
						"POSITION":15,
						"NORMAL":16
					},
					"indices":17
				}
			]
		},
		{
			"name":"Mesh.006",
			"primitives":[
				{
					"attributes":{
						"POSITION":18,
						"NORMAL":19
					},
					"indices":20
				}
			]
		},
		{
			"name":"Mesh.007",
			"primitives":[
				{
					"attributes":{
						"POSITION":21,
						"NORMAL":22
					},
					"indices":23
				}
			]
		},
		{
			"name":"Mesh.008",
			"primitives":[
				{
					"attributes":{
						"POSITION":24,
						"NORMAL":25
					},
					"indices":26
				}
			]
		},
		{
			"name":"Mesh.009",
			"primitives":[
				{
					"attributes":{
						"POSITION":27,
						"NORMAL":28
					},
					"indices":29
				}
			]
		},
		{
			"name":"Mesh.010",
			"primitives":[
				{
					"attributes":{
						"POSITION":30,
						"NORMAL":31
					},
					"indices":32
				}
			]
		},
		{
			"name":"Mesh.011",
			"primitives":[
				{
					"attributes":{
						"POSITION":33,
						"NORMAL":34
					},
					"indices":35
				}
			]
		},
		{
			"name":"Mesh.012",
			"primitives":[
				{
					"attributes":{
						"POSITION":36,
						"NORMAL":37
					},
					"indices":38
				}
			]
		},
		{
			"name":"Mesh.013",
			"primitives":[
				{
					"attributes":{
						"POSITION":39,
						"NORMAL":40
					},
					"indices":41
				}
			]
		},
		{
			"name":"Mesh.014",
			"primitives":[
				{
					"attributes":{
						"POSITION":42,
						"NORMAL":43
					},
					"indices":44
				}
			]
		},
		{
			"name":"Mesh.015",
			"primitives":[
				{
					"attributes":{
						"POSITION":45,
						"NORMAL":46
					},
					"indices":47
				}
			]
		},
		{
			"name":"Mesh.016",
			"primitives":[
				{
					"attributes":{
						"POSITION":48,
						"NORMAL":49
					},
					"indices":50
				}
			]
		},
		{
			"name":"Mesh.017",
			"primitives":[
				{
					"attributes":{
						"POSITION":51,
						"NORMAL":52
					},
					"indices":53
				}
			]
		}
	],
	"accessors":[
		{
			"bufferView":0,
			"componentType":5126,
			"count":48,
			"max":[
				0.022098496556282043,
				0.01529199443757534,
				-0.012085024267435074
			],
			"min":[
				0.01538001000881195,
				0.006844904273748398,
				-0.03552752360701561
			],
			"type":"VEC3"
		},
		{
			"bufferView":1,
			"componentType":5126,
			"count":48,
			"type":"VEC3"
		},
		{
			"bufferView":2,
			"componentType":5123,
			"count":84,
			"type":"SCALAR"
		},
		{
			"bufferView":3,
			"componentType":5126,
			"count":306,
			"max":[
				0.10876911878585815,
				0.01529199443757534,
				0.03841231390833855
			],
			"min":[
				0.08702780306339264,
				0.006844904273748398,
				0.0109996497631073
			],
			"type":"VEC3"
		},
		{
			"bufferView":4,
			"componentType":5126,
			"count":306,
			"type":"VEC3"
		},
		{
			"bufferView":5,
			"componentType":5123,
			"count":660,
			"type":"SCALAR"
		},
		{
			"bufferView":6,
			"componentType":5126,
			"count":478,
			"max":[
				0.023229897022247314,
				0.01529199443757534,
				0.026715319603681564
			],
			"min":[
				-0.024746619164943695,
				0.006844904273748398,
				-0.035539206117391586
			],
			"type":"VEC3"
		},
		{
			"bufferView":7,
			"componentType":5126,
			"count":478,
			"type":"VEC3"
		},
		{
			"bufferView":8,
			"componentType":5123,
			"count":1020,
			"type":"SCALAR"
		},
		{
			"bufferView":9,
			"componentType":5126,
			"count":1548,
			"max":[
				-0.021830998361110687,
				0.01529199443757534,
				0.028185773640871048
			],
			"min":[
				-0.11648748070001602,
				0.006844904273748398,
				-0.006423421204090118
			],
			"type":"VEC3"
		},
		{
			"bufferView":10,
			"componentType":5126,
			"count":1548,
			"type":"VEC3"
		},
		{
			"bufferView":11,
			"componentType":5123,
			"count":3372,
			"type":"SCALAR"
		},
		{
			"bufferView":12,
			"componentType":5126,
			"count":1010,
			"max":[
				0.11509372293949127,
				0.01529199443757534,
				0.018135536462068558
			],
			"min":[
				0.09828796982765198,
				0.006844904273748398,
				0.001377098262310028
			],
			"type":"VEC3"
		},
		{
			"bufferView":13,
			"componentType":5126,
			"count":1010,
			"type":"VEC3"
		},
		{
			"bufferView":14,
			"componentType":5123,
			"count":2028,
			"type":"SCALAR"
		},
		{
			"bufferView":15,
			"componentType":5126,
			"count":96,
			"max":[
				0.05325174331665039,
				0.01529199443757534,
				0.026542577892541885
			],
			"min":[
				0.02195417881011963,
				0.006844904273748398,
				-0.008712489157915115
			],
			"type":"VEC3"
		},
		{
			"bufferView":16,
			"componentType":5126,
			"count":96,
			"type":"VEC3"
		},
		{
			"bufferView":17,
			"componentType":5123,
			"count":180,
			"type":"SCALAR"
		},
		{
			"bufferView":18,
			"componentType":5126,
			"count":72,
			"max":[
				-0.016392357647418976,
				0.01529199443757534,
				0.004407141357660294
			],
			"min":[
				-0.03637862950563431,
				0.006844904273748398,
				-0.010789595544338226
			],
			"type":"VEC3"
		},
		{
			"bufferView":19,
			"componentType":5126,
			"count":72,
			"type":"VEC3"
		},
		{
			"bufferView":20,
			"componentType":5123,
			"count":132,
			"type":"SCALAR"
		},
		{
			"bufferView":21,
			"componentType":5126,
			"count":72,
			"max":[
				0.03438904881477356,
				0.01529199443757534,
				0.0027189813554286957
			],
			"min":[
				0.014754056930541992,
				0.006844904273748398,
				-0.01215815544128418
			],
			"type":"VEC3"
		},
		{
			"bufferView":22,
			"componentType":5126,
			"count":72,
			"type":"VEC3"
		},
		{
			"bufferView":23,
			"componentType":5123,
			"count":132,
			"type":"SCALAR"
		},
		{
			"bufferView":24,
			"componentType":5126,
			"count":298,
			"max":[
				0.057544007897377014,
				0.01529199443757534,
				-0.006192903965711594
			],
			"min":[
				0.02041502296924591,
				0.006844904273748398,
				-0.035380568355321884
			],
			"type":"VEC3"
		},
		{
			"bufferView":25,
			"componentType":5126,
			"count":298,
			"type":"VEC3"
		},
		{
			"bufferView":26,
			"componentType":5123,
			"count":660,
			"type":"SCALAR"
		},
		{
			"bufferView":27,
			"componentType":5126,
			"count":410,
			"max":[
				0.06732523441314697,
				0.01529199443757534,
				0.029581401497125626
			],
			"min":[
				0.03566044569015503,
				0.006844904273748398,
				0.0006325878202915192
			],
			"type":"VEC3"
		},
		{
			"bufferView":28,
			"componentType":5126,
			"count":410,
			"type":"VEC3"
		},
		{
			"bufferView":29,
			"componentType":5123,
			"count":876,
			"type":"SCALAR"
		},
		{
			"bufferView":30,
			"componentType":5126,
			"count":980,
			"max":[
				0.12730517983436584,
				0.01529199443757534,
				0.03459544852375984
			],
			"min":[
				0.05211701989173889,
				0.006844904273748398,
				-0.0323813296854496
			],
			"type":"VEC3"
		},
		{
			"bufferView":31,
			"componentType":5126,
			"count":980,
			"type":"VEC3"
		},
		{
			"bufferView":32,
			"componentType":5123,
			"count":2148,
			"type":"SCALAR"
		},
		{
			"bufferView":33,
			"componentType":5126,
			"count":430,
			"max":[
				-0.08017340302467346,
				0.01529199443757534,
				0.045953284949064255
			],
			"min":[
				-0.11032363772392273,
				0.006844904273748398,
				0.014737188816070557
			],
			"type":"VEC3"
		},
		{
			"bufferView":34,
			"componentType":5126,
			"count":430,
			"type":"VEC3"
		},
		{
			"bufferView":35,
			"componentType":5123,
			"count":924,
			"type":"SCALAR"
		},
		{
			"bufferView":36,
			"componentType":5126,
			"count":274,
			"max":[
				-0.057991184294223785,
				0.01529199443757534,
				0.037399690598249435
			],
			"min":[
				-0.08792823553085327,
				0.006844904273748398,
				0.00894138589501381
			],
			"type":"VEC3"
		},
		{
			"bufferView":37,
			"componentType":5126,
			"count":274,
			"type":"VEC3"
		},
		{
			"bufferView":38,
			"componentType":5123,
			"count":612,
			"type":"SCALAR"
		},
		{
			"bufferView":39,
			"componentType":5126,
			"count":272,
			"max":[
				-0.03562387079000473,
				0.01529199443757534,
				0.03187971189618111
			],
			"min":[
				-0.06431088596582413,
				0.006844904273748398,
				0.002965681254863739
			],
			"type":"VEC3"
		},
		{
			"bufferView":40,
			"componentType":5126,
			"count":272,
			"type":"VEC3"
		},
		{
			"bufferView":41,
			"componentType":5123,
			"count":612,
			"type":"SCALAR"
		},
		{
			"bufferView":42,
			"componentType":5126,
			"count":204,
			"max":[
				-0.022282250225543976,
				0.01529199443757534,
				-0.002257648855447769
			],
			"min":[
				-0.0566830188035965,
				0.006844904273748398,
				-0.03386053070425987
			],
			"type":"VEC3"
		},
		{
			"bufferView":43,
			"componentType":5126,
			"count":204,
			"type":"VEC3"
		},
		{
			"bufferView":44,
			"componentType":5123,
			"count":396,
			"type":"SCALAR"
		},
		{
			"bufferView":45,
			"componentType":5126,
			"count":364,
			"max":[
				-0.050859518349170685,
				0.01529199443757534,
				0.0028812959790229797
			],
			"min":[
				-0.08007276058197021,
				0.006844904273748398,
				-0.029216241091489792
			],
			"type":"VEC3"
		},
		{
			"bufferView":46,
			"componentType":5126,
			"count":364,
			"type":"VEC3"
		},
		{
			"bufferView":47,
			"componentType":5123,
			"count":876,
			"type":"SCALAR"
		},
		{
			"bufferView":48,
			"componentType":5126,
			"count":364,
			"max":[
				-0.07169623672962189,
				0.01529199443757534,
				0.008731447160243988
			],
			"min":[
				-0.1056923046708107,
				0.006844904273748398,
				-0.02401128038764
			],
			"type":"VEC3"
		},
		{
			"bufferView":49,
			"componentType":5126,
			"count":364,
			"type":"VEC3"
		},
		{
			"bufferView":50,
			"componentType":5123,
			"count":876,
			"type":"SCALAR"
		},
		{
			"bufferView":51,
			"componentType":5126,
			"count":454,
			"max":[
				-0.09541665017604828,
				0.01529199443757534,
				0.014458615332841873
			],
			"min":[
				-0.12902392446994781,
				0.006844904273748398,
				-0.016562316566705704
			],
			"type":"VEC3"
		},
		{
			"bufferView":52,
			"componentType":5126,
			"count":454,
			"type":"VEC3"
		},
		{
			"bufferView":53,
			"componentType":5123,
			"count":948,
			"type":"SCALAR"
		}
	],
	"bufferViews":[
		{
			"buffer":0,
			"byteLength":576,
			"byteOffset":0,
			"target":34962
		},
		{
			"buffer":0,
			"byteLength":576,
			"byteOffset":576,
			"target":34962
		},
		{
			"buffer":0,
			"byteLength":168,
			"byteOffset":1152,
			"target":34963
		},
		{
			"buffer":0,
			"byteLength":3672,
			"byteOffset":1320,
			"target":34962
		},
		{
			"buffer":0,
			"byteLength":3672,
			"byteOffset":4992,
			"target":34962
		},
		{
			"buffer":0,
			"byteLength":1320,
			"byteOffset":8664,
			"target":34963
		},
		{
			"buffer":0,
			"byteLength":5736,
			"byteOffset":9984,
			"target":34962
		},
		{
			"buffer":0,
			"byteLength":5736,
			"byteOffset":15720,
			"target":34962
		},
		{
			"buffer":0,
			"byteLength":2040,
			"byteOffset":21456,
			"target":34963
		},
		{
			"buffer":0,
			"byteLength":18576,
			"byteOffset":23496,
			"target":34962
		},
		{
			"buffer":0,
			"byteLength":18576,
			"byteOffset":42072,
			"target":34962
		},
		{
			"buffer":0,
			"byteLength":6744,
			"byteOffset":60648,
			"target":34963
		},
		{
			"buffer":0,
			"byteLength":12120,
			"byteOffset":67392,
			"target":34962
		},
		{
			"buffer":0,
			"byteLength":12120,
			"byteOffset":79512,
			"target":34962
		},
		{
			"buffer":0,
			"byteLength":4056,
			"byteOffset":91632,
			"target":34963
		},
		{
			"buffer":0,
			"byteLength":1152,
			"byteOffset":95688,
			"target":34962
		},
		{
			"buffer":0,
			"byteLength":1152,
			"byteOffset":96840,
			"target":34962
		},
		{
			"buffer":0,
			"byteLength":360,
			"byteOffset":97992,
			"target":34963
		},
		{
			"buffer":0,
			"byteLength":864,
			"byteOffset":98352,
			"target":34962
		},
		{
			"buffer":0,
			"byteLength":864,
			"byteOffset":99216,
			"target":34962
		},
		{
			"buffer":0,
			"byteLength":264,
			"byteOffset":100080,
			"target":34963
		},
		{
			"buffer":0,
			"byteLength":864,
			"byteOffset":100344,
			"target":34962
		},
		{
			"buffer":0,
			"byteLength":864,
			"byteOffset":101208,
			"target":34962
		},
		{
			"buffer":0,
			"byteLength":264,
			"byteOffset":102072,
			"target":34963
		},
		{
			"buffer":0,
			"byteLength":3576,
			"byteOffset":102336,
			"target":34962
		},
		{
			"buffer":0,
			"byteLength":3576,
			"byteOffset":105912,
			"target":34962
		},
		{
			"buffer":0,
			"byteLength":1320,
			"byteOffset":109488,
			"target":34963
		},
		{
			"buffer":0,
			"byteLength":4920,
			"byteOffset":110808,
			"target":34962
		},
		{
			"buffer":0,
			"byteLength":4920,
			"byteOffset":115728,
			"target":34962
		},
		{
			"buffer":0,
			"byteLength":1752,
			"byteOffset":120648,
			"target":34963
		},
		{
			"buffer":0,
			"byteLength":11760,
			"byteOffset":122400,
			"target":34962
		},
		{
			"buffer":0,
			"byteLength":11760,
			"byteOffset":134160,
			"target":34962
		},
		{
			"buffer":0,
			"byteLength":4296,
			"byteOffset":145920,
			"target":34963
		},
		{
			"buffer":0,
			"byteLength":5160,
			"byteOffset":150216,
			"target":34962
		},
		{
			"buffer":0,
			"byteLength":5160,
			"byteOffset":155376,
			"target":34962
		},
		{
			"buffer":0,
			"byteLength":1848,
			"byteOffset":160536,
			"target":34963
		},
		{
			"buffer":0,
			"byteLength":3288,
			"byteOffset":162384,
			"target":34962
		},
		{
			"buffer":0,
			"byteLength":3288,
			"byteOffset":165672,
			"target":34962
		},
		{
			"buffer":0,
			"byteLength":1224,
			"byteOffset":168960,
			"target":34963
		},
		{
			"buffer":0,
			"byteLength":3264,
			"byteOffset":170184,
			"target":34962
		},
		{
			"buffer":0,
			"byteLength":3264,
			"byteOffset":173448,
			"target":34962
		},
		{
			"buffer":0,
			"byteLength":1224,
			"byteOffset":176712,
			"target":34963
		},
		{
			"buffer":0,
			"byteLength":2448,
			"byteOffset":177936,
			"target":34962
		},
		{
			"buffer":0,
			"byteLength":2448,
			"byteOffset":180384,
			"target":34962
		},
		{
			"buffer":0,
			"byteLength":792,
			"byteOffset":182832,
			"target":34963
		},
		{
			"buffer":0,
			"byteLength":4368,
			"byteOffset":183624,
			"target":34962
		},
		{
			"buffer":0,
			"byteLength":4368,
			"byteOffset":187992,
			"target":34962
		},
		{
			"buffer":0,
			"byteLength":1752,
			"byteOffset":192360,
			"target":34963
		},
		{
			"buffer":0,
			"byteLength":4368,
			"byteOffset":194112,
			"target":34962
		},
		{
			"buffer":0,
			"byteLength":4368,
			"byteOffset":198480,
			"target":34962
		},
		{
			"buffer":0,
			"byteLength":1752,
			"byteOffset":202848,
			"target":34963
		},
		{
			"buffer":0,
			"byteLength":5448,
			"byteOffset":204600,
			"target":34962
		},
		{
			"buffer":0,
			"byteLength":5448,
			"byteOffset":210048,
			"target":34962
		},
		{
			"buffer":0,
			"byteLength":1896,
			"byteOffset":215496,
			"target":34963
		}
	],
	"buffers":[
		{
			"byteLength":217392,
			"uri":"data:application/octet-stream;base64,"
		}
	]
}
